<svg xmlns="http://www.w3.org/2000/svg" xmlns:xlink="http://www.w3.org/1999/xlink" viewBox="0 0 61 52" fill="#fff" fill-rule="evenodd" stroke="#000" stroke-linecap="round" stroke-linejoin="round"><style><![CDATA[.B{stroke:none}.C{fill-rule:nonzero}.D{fill:none}.E{stroke-width:.431}.F{stroke-width:.258}.G{fill:#543e3c}.H{fill:#9ddff9}.I{fill:#76747a}.J{fill:#f26d7d}.K{fill:#c25e69}.L{fill:#000}.M{fill:#c6996d}.N{fill:#8f6c5e}.O{fill:#fdf155}.P{stroke:#f90}.Q{fill:#ffd064}.R{fill:#6f4d4a}.S{stroke-width:.004}]]></style><use xlink:href="#A" x=".5" y=".5"/><symbol id="A" overflow="visible"><g class="B C"><path d="M53.476 5.036h.004c-.53-.306-1.122-.397-1.773-.28h-.004c-.65.117-1.173.414-1.562.885h-.004v.004c-.324.393-.488.807-.488 1.25-1.4.194-2.73.56-3.97 1.105-.298-1.247-.975-2.162-2.024-2.735l-.086-.047 1.445-1.173c.306.216.67.332 1.087.35.345.013.634-.026.867-.116a2.83 2.83 0 0 0 .733-.414c.492-.4.772-.893.846-1.48.073-.608-.082-1.14-.47-1.592S47.184.098 46.563.06h-.01c-.604-.03-1.148.15-1.627.544l-.004.004a2.19 2.19 0 0 0-.84 1.47v.004a1.97 1.97 0 0 0 .302 1.363l-1.713 1.4c-.73-.242-1.536-.354-2.43-.332-1.268.022-2.623.3-4.07.863l-1.346.57c-.164-.634-.393-1.122-.686-1.454-.462-.54-.958-.677-1.484-.414-.457.18-.828.67-1.113 1.458v.004c-.255.708-.397 1.596-.423 2.67-1.195.906-2.36 1.967-3.495 3.184-2.4.078-4.634.505-6.735 1.286h32.1l-.328-.203c-.712-.406-1.652-.695-2.822-.872-1.243-.2-2.623-.242-4.138-.16a11.95 11.95 0 0 0 .147-1.333c.023-.407.017-.815-.017-1.221a13.78 13.78 0 0 1 3.956-1.13c.13.263.367.518.716.772l.086.056.1.056c.526.306 1.117.397 1.773.28s1.173-.414 1.566-.884c.418-.505.57-1.048.462-1.635s-.44-1.04-1-1.36zM45.02 3.539l-.03-.035.03.03v.004"/><path d="M57.782 13.486c-.453-.073-.86-.004-1.217.207l-.01.01a1.5 1.5 0 0 0-.492.457c-.656-.09-1.318-.133-1.98-.129-.16-.526-.526-.984-1.1-1.372h-32.1a19.9 19.9 0 0 0-3.758 1.86c-.026-.522.047-1.023.216-1.506a1.65 1.65 0 0 0 .73-.21l.03-.017.043-.026.147-.1h-3.115c-.16.134-.32.26-.487.367-.01.004-.017.013-.022.017-.62.388-1.325.6-2.114.63.255-.315.488-.656.708-1.014H.131a3.72 3.72 0 0 0 .418 1.018c.35.608 1.014 1.117 1.993 1.532.824.354 1.795.6 2.904.742l.837.086c-.703.4-1.316.86-1.834 1.372-.8.78-1.17 1.532-1.14 2.252l-.263.12-.867.418.897.367c.65.255 1.23.6 1.743 1.027 0 .134.03.267.1.4v-.01a1.19 1.19 0 0 0 .578.63h.004c.28.142.56.177.85.104h.004a1.01 1.01 0 0 0 .522-.306c.207-.23.3-.513.246-.854l-.013-.06-.056-.168c-.01-.013-.01-.022-.013-.026a1.21 1.21 0 0 0-.375-.479l.004.004a1.18 1.18 0 0 0-.198-.13 1.1 1.1 0 0 0-.526-.138c-.073-.134-.13-.26-.16-.375-.03-.134-.035-.255-.004-.362.194-.574 1.06-1.053 2.602-1.428.004.013.01.022.017.035l.444 1 .854 1.605-1.2.746c-.01.004-.017.013-.026.017-1.635 1.053-3.25 2.226-4.84 3.52h51.756l-.004-.108-.004-.155-.108-.116c-1.9-2.105-3.94-3.87-6.075-5.294l-.544-.367-.142.76-3.1-1.333c2.127-.453 3.887-.94 5.28-1.458 2.036-.764 3.175-1.553 3.42-2.373.58-.004 1.159.031 1.734.104.022.3.147.557.37.807l.004.004c.272.315.634.505 1.092.578s.86 0 1.22-.2h-.004c.406-.237.638-.56.695-.975v.004c.073-.4-.047-.8-.358-1.14-.272-.315-.64-.505-1.092-.578zm-41.84 1.743l.07.047-1.173.915.07.1-.07-.1-.086-.112.328-.2c.315-.198.604-.418.863-.66"/><path d="M24.651 4.073a1.22 1.22 0 0 0-.371-.893 1.22 1.22 0 0 0-.893-.371 1.21 1.21 0 0 0-.893.367v.004h-.004c-.246.246-.367.544-.367.893l.004.1-.328.224a2.77 2.77 0 0 0-.677-.44c-.164-.07-.333-.128-.505-.173-.626-.15-1.182-.056-1.67.3h.004c-.505.336-.798.833-.88 1.488l-.173.06-.13.052a1.52 1.52 0 0 0-.224.112l-.01.004c-.53.28-.992.582-1.394.906l-.047.04c-.48.393-.867.824-1.16 1.286-.16.25-.285.492-.37.725.023-.519-.025-1.039-.142-1.545-.246-1.092-.902-1.946-1.963-2.563-.703-.42-1.808-.807-3.305-1.165h-.004l-1.842-.43-1.838-.5c-1.333-.436-2.395-1-3.18-1.7L1.284 0l.298 1.277c.233.988.246 2.084.04 3.296v.004c-.12.703-.4 1.782-.846 3.227-.42 1.372-.664 2.4-.738 3.055v.004c-.073.67-.04 1.273.095 1.816h13.13l.492-.92c.3-.66.535-1.3.67-1.92a1.58 1.58 0 0 0 .25.639l.017.035.026.03c.306.367.716.57 1.238.608a1.45 1.45 0 0 0-.047.73 5.44 5.44 0 0 1-.729.798h3.124a1.73 1.73 0 0 0 .544-.708v-.004l.004-.013.026-.07a1.48 1.48 0 0 0-.034-1.191c-.04-.088-.089-.172-.147-.25l-.026-.03a.55.55 0 0 0-.047-.052c.475-.3.945-.695 1.4-1.16h.004c.134-.134.255-.272.362-.414.578.112 1.096.01 1.558-.306.53-.358.824-.893.88-1.596.013-.15.013-.302.004-.45-.013-.186-.047-.367-.1-.548v-.004c-.03-.112-.07-.22-.117-.328l.34-.268a1.24 1.24 0 0 0 .423.069c.35 0 .643-.12.9-.367a1.21 1.21 0 0 0 .375-.897zm-5.013 1.28c.04-.056.1-.104.147-.142.186-.12.4-.147.643-.073-.3.112-.552.186-.8.216zm1.5 1.85l-.047.026.117-.198.004-.013.01-.013.026-.043.173-.224c-.04.198-.13.354-.28.466zm-.043-.065l.004-.017c-.004.01-.004.017-.004.022M1.97 26.736l-.134.117v.177c-.246 3.47.237 6.938 1.45 10.402a.43.43 0 0 0 .125.186c.043.04.095.065.155.086l.022.004 1.217.306h40.357a17.71 17.71 0 0 0 .729-1.307c.258-.484.482-.986.669-1.501l.798.134.462-.548.3 3.223h1.122l1.523-.112h.035l.022-.004.06-.013 3.43-1.027-.88-5.566 1.312-1.048c.078-.065.125-.138.147-.23.39-1.527.556-3.102.492-4.677H3.626c-.563.454-1.115.92-1.657 1.398m9.337 13.246l-.013.01c-.302.168-.483.44-.548.807v-.004c-.065.332-.01.65.173.958v.004c.053.095.12.181.2.255l-.306.837c-.406-.22-.8-.4-1.217-.574h.004l-.432-.168-.518-.2-.302 2.968c-.7.84-1.08 1.644-1.14 2.407v.004c-.1.936.272 1.765 1.096 2.5.854.755 1.786 1.04 2.796.854.945-.164 1.743-.712 2.395-1.648l3.076-.867-.388-.505-.824-1.005 1.148-.552c.069.042.141.078.216.108a1.3 1.3 0 0 0 .884.035h-.004c.298-.1.513-.255.647-.488 2.692 1.312 5.704 1.967 9.034 1.972 3.383 0 6.48-.677 9.293-2.036l.703-.354c1.463-.78 2.848-1.752 4.155-2.912 1.52-1.35 2.76-2.804 3.728-4.37H4.796l4.34 1.096.932-1.03c.37.661.783 1.297 1.238 1.903zm1.704 1.96l.45.436.6.54-1.074 1.398-.004-.004c-.004-.004-.013-.01-.017-.013l-.052-.043h-.004c-.315-.255-.764-.574-1.342-.962l.315-.863a1.08 1.08 0 0 0 .764-.138h-.004a1.1 1.1 0 0 0 .38-.349zm1.7 1.527l1.458 1.066c-.04.047-.07.1-.1.155v.004c-.112.216-.142.436-.086.656l-1.238.6-.026-.026-1.083-1.048 1.074-1.407m33.413-5.453l.01.082 1.113-.082h-1.122"/></g><g class="D"><path d="M14.75 16.08l-.06-.078m.216.28l-.07-.1" stroke="#fff" class="S"/><path d="M56.824 14.721a13.65 13.65 0 0 0-3.7-.22" class="E"/></g><g class="B C"><path d="M50.546 16.861c2.334-.872 3.387-1.743 3.15-2.62-.15-.557-.565-1.027-1.25-1.4-.673-.38-1.566-.65-2.675-.82-2.36-.358-5.22-.22-8.586.418l-.906 6.774c4.483-.686 7.908-1.467 10.268-2.343" fill="#00746b"/><path d="M53.426 14.354c-.142-.462-.544-.833-1.204-1.122-.647-.28-1.506-.462-2.576-.535-2.274-.168-5.026.12-8.266.86l-.872 5.8c4.32-.846 7.6-1.7 9.884-2.593 2.248-.876 3.262-1.678 3.033-2.407" fill="#2a5953"/></g><path d="M40.278 19.204c4.483-.686 7.908-1.467 10.268-2.343 2.334-.872 3.387-1.743 3.15-2.62-.15-.557-.565-1.027-1.25-1.4-.673-.38-1.566-.65-2.675-.82-2.36-.358-5.22-.22-8.586.418" class="D E"/><g class="B C"><path d="M58.55 14.35c-.21-.237-.488-.38-.837-.436a1.38 1.38 0 0 0-.936.155.93.93 0 0 0-.483.67c-.047.282.043.544.255.78s.488.384.837.44.66 0 .936-.16.44-.384.483-.664-.04-.544-.254-.785" class="J"/><path d="M58.489 14.776c-.138-.155-.324-.25-.552-.29s-.43 0-.617.104-.29.255-.32.44.026.358.168.518.324.25.552.29a.89.89 0 0 0 .62-.108c.184-.108.29-.25.315-.436s-.026-.358-.168-.518" fill="#b25963"/></g><path d="M57.713 13.914c-.35-.056-.66-.004-.936.155a.93.93 0 0 0-.483.67c-.047.282.043.544.255.78s.488.384.837.44.66 0 .936-.16.44-.384.483-.664-.04-.544-.254-.785-.488-.38-.837-.436z" class="D E"/><path d="M51.168 14.069c0-.358-.173-.66-.513-.915s-.75-.38-1.234-.38-.897.125-1.238.38-.5.557-.5.915.168.66.5.915.755.38 1.238.38.893-.125 1.234-.38.513-.557.513-.915" class="B C Q"/><path d="M50.654 13.156c-.34-.255-.75-.38-1.234-.38s-.897.125-1.238.38-.5.557-.5.915.168.66.5.915.755.38 1.238.38.893-.125 1.234-.38.513-.557.513-.915-.173-.66-.513-.915z" class="D F"/><path d="M49.744 13.976c0-.125-.065-.23-.2-.32s-.28-.134-.457-.134-.336.043-.462.134-.186.194-.186.32.06.23.186.32.28.134.462.134a.75.75 0 0 0 .457-.134c.125-.091.2-.194.2-.32" fill="#2f211e" class="B C"/><g class="D"><path d="M49.554 13.656c-.125-.09-.28-.134-.457-.134s-.336.043-.462.134-.186.194-.186.32.06.23.186.32.28.134.462.134a.75.75 0 0 0 .457-.134c.125-.091.2-.194.2-.32s-.065-.23-.2-.32z" class="F"/><path d="M50.676 7.209c-1.93.15-3.702.617-5.315 1.402m-.165-5.275l-2.705 2.196" class="E"/></g><g class="B C"><path d="M40.252 4.923c-1.22.022-2.533.302-3.926.833-.608.23-1.212.496-1.803.802-.142-.824-.38-1.424-.708-1.808-.306-.358-.634-.462-.98-.302-.358.16-.65.565-.884 1.212-.255.72-.388 1.635-.4 2.748-1.277.95-2.52 2.08-3.728 3.387 3.17 3.728 8.184 5.988 15.044 6.787a50.1 50.1 0 0 0 1.057-2.558c.902.07 1.657-.01 2.265-.23.548-.198.876-.47.984-.815s-.035-.656-.427-.936c-.43-.315-1.083-.513-1.954-.6.362-1.28.57-2.403.62-3.374.116-2.166-.54-3.646-1.967-4.44-.893-.496-1.96-.733-3.193-.708" fill="#7cc576"/><path d="M42.608 6.43c-1.635-.583-3.516-.37-5.635.634-2.114.997-3.87 2.6-5.272 4.767 3 1.234 6.735 3.275 11.166 6.122.25-.4.444-.75.587-1.03.177-.34.328-.7.453-1.044.686.047 1.294-.026 1.825-.23.565-.216.82-.505.76-.863-.073-.436-.815-.67-2.222-.7.149-.733.257-1.473.324-2.218.082-.984.065-1.842-.047-2.57-.1-.617-.26-1.117-.48-1.5a3.86 3.86 0 0 0-.695-.876c-.26-.237-.513-.4-.764-.492" fill="#6f9b64"/></g><g class="D"><path d="M42.866 18.582l1.057-2.558c.902.07 1.657-.01 2.265-.23.548-.198.876-.47.984-.815s-.035-.656-.427-.936c-.43-.315-1.083-.513-1.954-.6.362-1.28.57-2.403.62-3.374.116-2.166-.54-3.646-1.967-4.44-.893-.496-1.96-.733-3.193-.708-1.22.022-2.533.302-3.926.833a16.68 16.68 0 0 0-1.803.802c-.142-.824-.38-1.424-.708-1.808-.306-.358-.634-.462-.98-.302-.358.16-.65.565-.884 1.212-.255.72-.388 1.635-.4 2.748-1.277.95-2.52 2.08-3.728 3.387" class="E"/><path d="M39.678 6.542a3.63 3.63 0 0 0-2.347.66c-.712.5-1.148 1.13-1.303 1.885a2.21 2.21 0 0 0 .513 1.993c.492.578 1.165.893 2.02.945s1.64-.168 2.35-.67 1.143-1.122 1.294-1.88a2.23 2.23 0 0 0-.505-1.998c-.496-.57-1.17-.88-2.024-.936z" stroke="#7cc576" stroke-width=".69"/></g><g class="B C"><path d="M42.228 9.432a2.23 2.23 0 0 0-.505-1.998c-.496-.57-1.17-.88-2.023-.936a3.63 3.63 0 0 0-2.347.66c-.712.5-1.148 1.13-1.303 1.885a2.21 2.21 0 0 0 .513 1.993c.492.578 1.165.893 2.02.945s1.64-.168 2.35-.67 1.143-1.122 1.294-1.88" fill="#fff356"/><path d="M37.884 7.943c-.608.418-.98.945-1.122 1.58a1.84 1.84 0 0 0 .393 1.67c.406.483.966.746 1.678.8s1.376-.142 1.98-.56.975-.94 1.113-1.575a1.85 1.85 0 0 0-.388-1.674c-.406-.475-.966-.733-1.683-.78s-1.372.142-1.972.552" fill="#cbbb4e"/></g><path d="M39.7 6.499a3.63 3.63 0 0 0-2.347.66c-.712.5-1.148 1.13-1.303 1.885a2.21 2.21 0 0 0 .513 1.993c.492.578 1.165.893 2.02.945s1.64-.168 2.35-.67 1.143-1.122 1.294-1.88a2.23 2.23 0 0 0-.505-1.998c-.496-.57-1.17-.88-2.023-.936z" class="D F"/><g class="B C"><path d="M37.985 7.192c-.2.134-.306.298-.35.492a.57.57 0 0 0 .121.522c.125.15.302.23.522.242a.97.97 0 0 0 .617-.173c.186-.13.302-.293.345-.492s.004-.367-.12-.518a.7.7 0 0 0-.522-.246.97.97 0 0 0-.613.173" fill="#fff356"/><path d="M38.449 8.461c-.38-.017-.73.065-1.044.242-.315.186-.51.414-.578.695s.01.522.23.73.518.328.897.35a1.9 1.9 0 0 0 1.044-.246c.315-.18.505-.4.574-.7a.7.7 0 0 0-.224-.733c-.22-.211-.522-.324-.897-.345" class="R"/></g><path d="M37.406 8.702c-.315.186-.51.414-.578.695s.01.522.23.73.518.328.897.35a1.9 1.9 0 0 0 1.044-.246c.315-.18.505-.4.574-.7a.7.7 0 0 0-.224-.733c-.22-.211-.522-.324-.897-.345a1.89 1.89 0 0 0-1.044.242z" class="D F"/><g class="B C"><path d="M46.534.479c-.496-.022-.94.125-1.337.45a1.8 1.8 0 0 0-.686 1.195 1.55 1.55 0 0 0 .371 1.255c.3.362.716.557 1.217.578a1.89 1.89 0 0 0 1.333-.44 1.78 1.78 0 0 0 .69-1.199 1.55 1.55 0 0 0-.371-1.255c-.3-.358-.716-.552-1.217-.583" class="J"/><path d="M47.625 1.736a1.22 1.22 0 0 0-.876-.418c-.358-.021-.677.09-.962.324a1.29 1.29 0 0 0-.496.859c-.043.345.047.647.268.906a1.18 1.18 0 0 0 .876.414 1.36 1.36 0 0 0 .962-.315c.29-.233.453-.522.496-.863s-.048-.657-.268-.907" class="K"/></g><path d="M45.196.928a1.8 1.8 0 0 0-.686 1.195 1.55 1.55 0 0 0 .371 1.255c.3.362.716.557 1.217.578a1.89 1.89 0 0 0 1.333-.44 1.78 1.78 0 0 0 .69-1.199 1.55 1.55 0 0 0-.371-1.255c-.3-.358-.716-.552-1.217-.583-.496-.022-.94.125-1.337.45z" class="D E"/><g class="B C"><path d="M51.781 5.169c-.548.1-.984.345-1.312.738s-.444.82-.362 1.277.345.815.8 1.066.936.328 1.484.23.984-.34 1.312-.733.45-.82.367-1.28-.35-.81-.794-1.06a2.15 2.15 0 0 0-1.484-.233" class="J"/><path d="M52.305 6.066a1.67 1.67 0 0 0-1.035.298c-.305.212-.483.475-.53.794a.93.93 0 0 0 .285.833c.242.237.557.367.945.384a1.63 1.63 0 0 0 1.031-.289c.31-.216.488-.483.535-.798s-.052-.595-.29-.833-.552-.367-.94-.388" class="K"/></g><path d="M50.469 5.906c-.324.393-.444.82-.362 1.277s.345.815.8 1.066.936.328 1.484.23.984-.34 1.312-.733.45-.82.367-1.28-.35-.81-.794-1.06a2.15 2.15 0 0 0-1.484-.233c-.548.099-.984.345-1.312.738z" class="D E"/><g class="B C"><path d="M33.552 5.958c-.155-.186-.324-.22-.5-.104-.393.263-.66 1.023-.803 2.282l1.704-1.148c-.1-.492-.233-.837-.4-1.03" fill="#6f9b64"/><path d="M41.966 16.976c-3.663-3.46-8.172-5.2-13.517-5.2s-9.97 1.73-13.867 5.2-5.92 7.645-6.08 12.542 1.588 9.078 5.25 12.542 8.176 5.195 13.52 5.195 9.966-1.73 13.862-5.195 5.928-7.645 6.088-12.542-1.592-9.078-5.26-12.542" class="M"/><path d="M31.688 11.869c1.506.746 2.796 1.493 3.87 2.243.943.656 1.823 1.399 2.628 2.218-3.46-1.734-6.92-2.472-10.376-2.213-3.102.233-5.97 1.238-8.607 3-2.45 1.648-4.388 3.736-5.812 6.265-1.415 2.5-2.08 5.026-1.998 7.55.003.167 0 .334-.009.501a9.85 9.85 0 0 0-.017.501l-1.773.595-.7 2.46 2.157 3.883 1.312-1.428a16.37 16.37 0 0 0 1.41 2.317c.5.7 1.14 1.42 1.885 2.192 3.113 3.183 6.968 4.785 11.608 4.785s8.672-1.592 12.12-4.776c1.03-.954 1.903-1.898 2.6-2.843a18.26 18.26 0 0 0 1.873-3.098l1.76.53.992-2.76-1.976-.496c.148-.776.244-1.562.285-2.351.134-2.498-.017-4.612-.453-6.342-.406-1.6-1.083-3.03-2.028-4.276l.587-2.33c-3.102-3.408-6.88-5.45-11.347-6.126" class="N"/></g><path d="M28.448 11.786c-5.346 0-9.97 1.73-13.867 5.2s-5.92 7.645-6.08 12.542 1.588 9.078 5.25 12.542 8.176 5.195 13.52 5.195 9.966-1.73 13.862-5.195 5.928-7.645 6.088-12.542-1.592-9.078-5.26-12.542-8.172-5.2-13.517-5.2z" class="D E"/><g class="B C"><path d="M21.959 5.236c-.35-.513-.794-.846-1.333-1s-1.014-.095-1.432.194-.65.708-.703 1.264.1 1.096.45 1.6.8.84 1.33.997 1.023.1 1.44-.186.647-.712.695-1.273-.095-1.096-.444-1.605zm-2.908.54c.03-.406.194-.708.492-.9s.64-.242 1.023-.125c.393.12.716.367.97.742s.367.764.336 1.174-.186.712-.483.915-.64.242-1.03.12-.712-.367-.966-.742-.37-.764-.34-1.173" class="H"/><path d="M22.369 5.941l-.268-.56-.4.38.12.677.548-.496" fill="#86adc0"/></g><g class="D F"><path d="M20.626 4.224c-.54-.16-1.014-.095-1.432.194s-.65.708-.703 1.264.1 1.096.45 1.6.8.84 1.33.997 1.023.1 1.44-.186.647-.712.695-1.273-.095-1.096-.444-1.605-.794-.846-1.333-1z"/><path d="M19.051 5.764c-.03.4.086.798.34 1.173s.574.62.966.742.733.082 1.03-.12.457-.505.483-.915-.082-.798-.336-1.174-.578-.62-.97-.742c-.384-.117-.725-.078-1.023.125s-.462.505-.492.9z"/></g><g class="B C"><path d="M17.83 10.343c-.29-.073-.57-.026-.85.134s-.48.393-.587.695c-.1.272-.108.526-.017.772-.423.608-.906 1.092-1.454 1.445a5.8 5.8 0 0 0 .979 1.264c.28.263.574.475.89.634-.186-.966-.095-1.877.276-2.735.276.065.548.017.82-.138a1.26 1.26 0 0 0 .582-.699 1.07 1.07 0 0 0-.02-.854c-.124-.267-.332-.444-.617-.518" class="G"/><path d="M8.026 15.686c-1.337.53-2.425 1.204-3.262 2.028-.794.78-1.117 1.527-.966 2.23a3.9 3.9 0 0 1 1.562-.186c.177-.794 1.273-1.415 3.288-1.86a21.02 21.02 0 0 0 2.696 4.875l6.472-2.675c-1.47-1.324-2.705-2.722-3.7-4.2.733-.315 1.337-.738 1.808-1.26a5.8 5.8 0 0 1-.979-1.264c-.772.496-1.665.733-2.68.716-.043 2.18.444 4.582 1.463 7.205-1.307-.876-2.412-1.765-3.313-2.662a17.23 17.23 0 0 1-2.377-2.96" class="Q"/><path d="M5.284 21.421c-.043.134-.035.268.026.4a.74.74 0 0 0 .38.4c.182.085.367.116.552.07s.315-.147.393-.306a.58.58 0 0 0 .013-.5.78.78 0 0 0-.38-.41c-.18-.1-.362-.117-.544-.07-.337-.462-.462-.884-.375-1.264a3.9 3.9 0 0 0-1.562.186 3.46 3.46 0 0 0-.548.22c.772.306 1.454.725 2.045 1.255m5.294-7.54l-2.2.988c-.082.246-.203.526-.362.837a17.23 17.23 0 0 0 2.377 2.96c.902.897 2.006 1.786 3.313 2.662-1.018-2.623-1.506-5.026-1.463-7.205-.522-.013-1.08-.1-1.665-.242" class="G"/><path d="M5.491 21.421c-.15.298-.1.53.164.708s.578.173.936-.017c.237-.7-.04-1.057-.82-1.08-.354-.466-.513-.9-.475-1.268h-.764c.06.557.38 1.1.958 1.657m12.772-10.885l-.388-.28-1.25.54.496.216c-.276.242-.384.595-.324 1.057-.26.444-.496.802-.716 1.074a3.55 3.55 0 0 1-.84.777l.7.86c.16-.052.255-.047.276.01.04-.824.276-1.622.712-2.395 1.394.276 1.842-.34 1.337-1.855" fill="#3a2b29"/><path d="M4.533 19.764h.764c.082-.863 1.178-1.506 3.28-1.924l1.696 3.365.54-.315 4.198-2.196c-.703-1.165-1.122-2.118-1.255-2.86 1.312-.302 2.04-.656 2.183-1.066l-.7-.86c-.548.406-1.13.64-1.752.7-.608.056-1.22-.052-1.847-.328l-3.474 1.576c-1.126.626-2.028 1.3-2.697 2.002-.686.73-.997 1.363-.936 1.907" fill="#cba357"/><path d="M17.886 10.136h-.004c-.34-.1-.677-.04-1 .155-.328.186-.557.457-.682.807-.108.28-.125.552-.052.8-.393.544-.837.975-1.333 1.3-.738.47-1.588.7-2.558.682-.545-.018-1.086-.096-1.614-.233l-.073-.017-2.356 1.057-.03.1c-.073.22-.177.462-.315.733-1.333.535-2.416 1.217-3.257 2.045-.8.777-1.143 1.523-1.057 2.24a3.96 3.96 0 0 0-.401.168l-.43.2.45.186a6.45 6.45 0 0 1 1.885 1.13.79.79 0 0 0 .065.414.99.99 0 0 0 .479.522h.004a.99.99 0 0 0 .699.086c.25-.065.427-.203.535-.423v.004a.8.8 0 0 0 .022-.682h-.004a1 1 0 0 0-.479-.518.99.99 0 0 0-.544-.112c-.237-.358-.324-.686-.263-.984.177-.686 1.16-1.238 2.947-1.652.678 1.69 1.569 3.287 2.653 4.75l.1.134 6.942-2.87-.25-.23c-1.385-1.25-2.563-2.563-3.53-3.94.582-.28 1.083-.63 1.493-1.048.238.206.501.383.781.526l.384.198-.078-.43c-.168-.867-.1-1.683.203-2.455a1.34 1.34 0 0 0 .79-.19c.324-.2.552-.462.677-.815v.004c.134-.362.12-.703-.03-1.023h.004a1.12 1.12 0 0 0-.759-.634zM4.904 17.872c.82-.807 1.885-1.467 3.193-1.98l.04-.017.035-.013.04-.073c.133-.251.248-.511.345-.777l2.045-.92c.574.142 1.122.216 1.64.23h.004c1 .017 1.903-.207 2.684-.677.23.362.475.682.738.954-.444.462-.997.833-1.657 1.117l-.237.108.147.2c.954 1.398 2.118 2.73 3.495 4l-6.006 2.48a20.66 20.66 0 0 1-2.567-4.7l-.07-.173-.18.04c-2.058.453-3.2 1.1-3.43 1.933a4.03 4.03 0 0 0-1.182.134c-.052-.595.26-1.225.928-1.885zm.647 3.283l.078.112.15-.03a.53.53 0 0 1 .393.052h-.004c.134.065.224.164.28.298a.39.39 0 0 1-.004.324H6.44a.36.36 0 0 1-.25.194c-.134.03-.267.013-.4-.052a.56.56 0 0 1-.276-.298v-.004H5.51a.36.36 0 0 1-.017-.26l.04-.142-.1-.086c-.513-.454-1.089-.831-1.709-1.122l.293-.125c.358-.1.72-.147 1.096-.138-.043.393.104.815.44 1.277zm11.537-10.49a.9.9 0 0 1 .69-.112c.22.056.375.2.475.397v.004c.1.2.104.44.013.686a1.07 1.07 0 0 1-.488.587.92.92 0 0 1-.664.116l-.177-.04-.07.16a4.65 4.65 0 0 0-.358 2.407c-.2-.1-.414-.255-.673-.466-.26-.279-.493-.582-.695-.906.526-.358.997-.837 1.4-1.432l.065-.086-.04-.112c-.07-.2-.065-.406.017-.62v-.004c.1-.254.255-.444.492-.578" class="L"/><path d="M12.243 14.32h-.004a7.51 7.51 0 0 1-1.64-.23l-2.045.92a6.28 6.28 0 0 1-.345.777l-.04.073-.035.013c.653 1.001 1.409 1.931 2.256 2.774.902.897 2.006 1.786 3.313 2.662-.984-2.537-1.47-4.867-1.463-7" class="G"/></g><path d="M12.243 14.32c-.01 2.123.48 4.453 1.463 7-1.307-.876-2.412-1.765-3.313-2.662a17.15 17.15 0 0 1-2.256-2.774" stroke-width=".086" class="D"/><g class="B C"><path d="M23.081 4.353l-.23-.194c-1.286.988-2.347 1.527-3.18 1.627.004.67.336 1.117.997 1.35.34-.764 1.17-1.618 2.494-2.554l-.082-.23" fill="#94625e"/><path d="M19.672 5.786l-.906.052a2.87 2.87 0 0 0-1.03.324c-1.1.587-1.924 1.28-2.438 2.084-.5.78-.587 1.445-.26 2 .418.475 1.08.6 1.976.345.923-.25 1.83-.82 2.714-1.704a2.9 2.9 0 0 0 .62-.884l.32-.854c-.66-.233-.992-.682-.997-1.35" class="J"/><path d="M22.626 4.816v-.3c-1.182 1.074-2.092 1.747-2.735 2.02l.708.664c.367-.626 1.04-1.415 2.028-2.373" fill="#74504d"/><path d="M15.926 10.018c.315.358.815.45 1.497.263.7-.2 1.277-.492 1.73-.906s.725-.712.82-.9l.337-.647c.047-.194.147-.4.3-.65l-.708-.664c-.145.066-.299.109-.457.129-.3.013-.56.056-.746.134s-.535.3-1.048.7-.992.802-1.428 1.247-.53.876-.285 1.286" fill="#a3555c"/></g><g class="D"><path d="M20.669 7.136c-.66-.233-.992-.682-.997-1.35" class="F"/><g class="E"><path d="M23.081 4.353l.082.23c-1.325.936-2.153 1.8-2.494 2.554l-.32.854c-.142.32-.35.613-.62.884-.884.884-1.8 1.454-2.714 1.704-.897.246-1.558.13-1.976-.345-.328-.544-.242-1.208.26-2 .513-.802 1.33-1.497 2.438-2.084.34-.177.682-.285 1.03-.324l.906-.052c.833-.1 1.894-.64 3.18-1.627z"/><path d="M16.466 8.292l-.518.475.56.237.324.695.43-.78 1.08-.065-.518-.583v-.82l-.712.324" stroke="#f26d7d"/></g></g><path d="M24.22 4.073a.81.81 0 0 0-.246-.591c-.16-.16-.358-.242-.587-.242a.82.82 0 0 0-.833.833.8.8 0 0 0 .242.587.81.81 0 0 0 .591.246.79.79 0 0 0 .587-.246.79.79 0 0 0 .246-.587" class="B C J"/><path d="M23.974 3.482c-.16-.16-.358-.242-.587-.242a.82.82 0 0 0-.833.833.8.8 0 0 0 .242.587.81.81 0 0 0 .591.246.79.79 0 0 0 .587-.246.79.79 0 0 0 .246-.587.81.81 0 0 0-.246-.591z" class="D E"/><g class="B C"><path d="M17.809 7.408l-.362.168-1.342 1.22.388.164.324.695.43-.78 1.08-.065-.518-.583v-.82" class="Q"/><path d="M17.446 7.576l-.35.155-.604-.345-.043.863-.518.475.173.073 1.342-1.22"/></g><path d="M17.446 7.576l-.35.155-.604-.345-.043.863-.518.475.173.073.388.164.324.695.43-.78 1.08-.065-.518-.583v-.82z" stroke-width=".173" class="D"/><path d="M22.403 6.83c.013-.13.013-.26.004-.384h-.53c.003.066.001.132-.004.198-.026.4-.186.712-.483.915s-.64.242-1.03.12-.712-.367-.966-.742-.37-.764-.34-1.173.194-.708.492-.9.64-.242 1.023-.125c.022.004.04.013.06.022v-.525c-.54-.16-1.014-.095-1.432.194s-.65.708-.703 1.264.1 1.096.45 1.6.8.84 1.33.997 1.023.1 1.44-.186.647-.712.695-1.273" class="B C H"/><g class="D F"><path d="M21.876 6.436c.004.065 0 .134-.004.198-.026.4-.186.712-.483.915s-.64.242-1.03.12-.712-.367-.966-.742-.37-.764-.34-1.173.194-.708.492-.9.64-.242 1.023-.125c.022.004.04.013.06.022"/><path d="M20.626 4.224c-.54-.16-1.014-.095-1.432.194s-.65.708-.703 1.264.1 1.096.45 1.6.8.84 1.33.997 1.023.1 1.44-.186.647-.712.695-1.273c.013-.13.013-.26.004-.384"/></g><path d="M13.999 7.286c-.224-.97-.8-1.73-1.76-2.287-.677-.397-1.743-.768-3.188-1.117l-1.847-.43-1.868-.518C3.933 2.476 2.836 1.886 2 1.156c.246 1.04.263 2.196.043 3.47-.12.72-.406 1.812-.86 3.283-.4 1.337-.647 2.33-.72 2.977-.108 1.018.043 1.877.457 2.57.315.53.915.984 1.8 1.355.794.34 1.72.578 2.787.712 1.018.134 1.98.15 2.9.056.945-.1 1.648-.302 2.114-.613 1.204-.802 2.153-1.94 2.856-3.413.73-1.536.94-2.96.64-4.267" fill="#935a8c" class="B C"/><path d="M12.239 5c-.677-.397-1.743-.768-3.188-1.117l-1.847-.43-1.878-.517c-1.403-.46-2.5-1.05-3.336-1.78.246 1.04.263 2.196.043 3.47-.12.72-.406 1.812-.86 3.283-.4 1.337-.647 2.33-.72 2.977-.108 1.018.043 1.877.457 2.57.315.53.915.984 1.8 1.355.794.34 1.72.578 2.787.712 1.018.134 1.98.15 2.9.056.945-.1 1.648-.302 2.114-.613 1.204-.802 2.153-1.94 2.856-3.413.73-1.536.94-2.96.64-4.267-.224-.97-.8-1.73-1.76-2.287z" class="D E"/><path d="M13.533 8.75c-.1-1.04-.557-1.885-1.38-2.546s-1.597-1.028-2.327-1.091a20.16 20.16 0 0 1-2.282-.354 14.06 14.06 0 0 1-2.235-.66c-.695-.272-1.48-.72-2.356-1.337.186.893.15 1.88-.1 2.96-.138.608-.44 1.527-.9 2.766-.423 1.126-.682 1.963-.772 2.51-.138.863-.035 1.6.315 2.21.272.462.703.906 1.294 1.33s1.385.695 2.377.82c.948.122 1.904.175 2.86.16.9-.022 1.74-.268 2.476-.738s1.454-1.333 2.15-2.59.988-2.4.89-3.44" fill="#674654" class="B C"/><path d="M10.917 5.406a2.33 2.33 0 0 1 1.778 1.406c.388.884.32 1.98-.207 3.28-.302.746-.6 1.36-.867 1.842l-.22.358c-.324.487-.677.872-1.06 1.143-.09.065-.183.124-.28.177-.444.246-.97.384-1.575.4l-.32.004c-.746-.017-1.665-.194-2.757-.526-1.33-.4-2.278-.992-2.852-1.765-.518-.695-.64-1.4-.367-2.084s.86-1.174 1.752-1.437c.997-.3 2.162-.224 3.495.194.065-1.096.475-1.924 1.23-2.5.677-.5 1.428-.682 2.252-.513z" stroke="#935a8c" stroke-width=".776" class="D"/><g class="B C"><path d="M10.876 5.32c-.824-.168-1.575.004-2.252.513-.755.565-1.165 1.394-1.23 2.5-1.333-.418-2.498-.483-3.495-.194-.893.263-1.476.742-1.752 1.437s-.15 1.4.367 2.084c.574.772 1.523 1.363 2.852 1.765.59-.488 1.212-.936 1.864-1.338a15.96 15.96 0 0 1 1.765-.94c.623-.286 1.265-.531 1.92-.733l1.532-.397c.526-1.3.595-2.395.207-3.28a2.33 2.33 0 0 0-1.778-1.406" fill="#ffca6d"/><path d="M12.446 10.006c-.522.108-1.03.242-1.532.397l.664 1.445a15.49 15.49 0 0 0 .867-1.842m-5.215 2.07c-.651.402-1.274.85-1.864 1.338 1.092.332 2 .5 2.757.526l.32-.004-1.212-1.86"/><path d="M11.358 12.206l.22-.358-.664-1.445a15.58 15.58 0 0 0-1.92.733l1.303 2.213c.384-.272.738-.656 1.06-1.143"/><path d="M10.026 13.536c.095-.052.2-.112.28-.177l-1.312-2.223c-.607.276-1.197.59-1.765.94l1.212 1.86c.604-.026 1.13-.164 1.575-.4"/></g><g class="D F"><path d="M5.366 13.415c-1.33-.4-2.278-.992-2.852-1.765-.518-.695-.64-1.4-.367-2.084s.86-1.173 1.752-1.437c.997-.3 2.162-.224 3.495.194.065-1.096.475-1.924 1.23-2.5.677-.5 1.428-.682 2.252-.513a2.33 2.33 0 0 1 1.778 1.406c.388.884.32 1.98-.207 3.28m-.001.001c-.522.108-1.03.242-1.532.397M7.23 12.077c-.651.402-1.274.85-1.864 1.338m6.213-1.566l-.22.358c-.324.488-.677.872-1.06 1.143m-1.857.587l-.32.004c-.746-.017-1.665-.194-2.757-.526m4.93-.065a2.78 2.78 0 0 1-.28.177c-.444.246-.97.384-1.575.4m.554-2.8l1.303 2.213m2.15-3.343c-.302.746-.6 1.36-.867 1.842"/><path d="M10.914 10.402l.664 1.445m-4.348.23l1.212 1.86"/><path d="M10.914 10.402c-.655.202-1.297.447-1.92.733m0 .001c-.607.276-1.197.59-1.765.94"/></g><path d="M4.688 10.066c-.138.116-.207.26-.207.423a.53.53 0 0 0 .207.418.77.77 0 0 0 .51.177c.2 0 .367-.06.505-.177a.52.52 0 0 0 .211-.418c0-.164-.07-.306-.21-.423s-.306-.168-.505-.168-.367.056-.51.168" class="B C R"/><path d="M4.481 10.488a.53.53 0 0 0 .207.418.77.77 0 0 0 .51.177c.2 0 .367-.06.505-.177a.52.52 0 0 0 .211-.418c0-.164-.07-.306-.21-.423s-.306-.168-.505-.168-.367.056-.51.168-.207.26-.207.423z" class="D F"/><path d="M10.876 8.296a.75.75 0 0 0 .104-.522c-.03-.182-.116-.302-.26-.384s-.298-.095-.466-.035a.78.78 0 0 0-.406.35.75.75 0 0 0-.1.522.53.53 0 0 0 .26.393c.144.083.298.09.466.026a.77.77 0 0 0 .4-.35" class="B C R"/><path d="M10.979 7.776c-.03-.177-.116-.302-.26-.384s-.298-.095-.466-.035a.78.78 0 0 0-.406.35.75.75 0 0 0-.1.522.53.53 0 0 0 .26.393c.144.083.298.09.466.026a.77.77 0 0 0 .4-.35c.098-.17.134-.34.104-.522z" class="D F"/><path d="M23.776 3.861c-.095-.09-.207-.138-.34-.138a.47.47 0 0 0-.34.138.46.46 0 0 0-.142.34.47.47 0 0 0 .142.345.46.46 0 0 0 .34.142.46.46 0 0 0 .34-.142c.094-.095.142-.21.142-.345s-.047-.246-.142-.34" fill="#a3555c" class="B C"/><path d="M14.361 46.609l2.235-1.08m-3.766-.323l2.347-3.063m-4.267 1.663l.703-1.93" class="D E"/><g class="B C"><path d="M12.679 44.629c-1.2-.962-2.42-1.67-3.667-2.118l-.26 2.546 4.466 3.56 2.6-.733c-.97-1.264-2.024-2.347-3.15-3.253" class="J"/><path d="M13.217 48.616l-1-.798c-.384.513-.798.824-1.247.94s-.876.03-1.268-.267c-.4-.306-.587-.72-.54-1.243.04-.457.25-.9.634-1.36l-1.044-.833c-.686.798-1.06 1.553-1.126 2.274-.07.798.25 1.5.953 2.13.746.66 1.558.9 2.433.75s1.614-.7 2.205-1.596" class="H"/><use xlink:href="#C" fill="#716f75"/><path d="M12.898 48.296l-2.826-2.252-.863-.7c-.565.66-.87 1.286-.928 1.88-.056.66.203 1.247.785 1.76.617.544 1.286.75 2 .617s1.333-.57 1.82-1.316" fill="#86adc0"/><path d="M12.656 48.206l2.18-.67c-1.316-1.808-3-3.197-5.026-4.168l-.324 2.114 3.17 2.722" class="K"/><path d="M8.626 47.936a.48.48 0 0 0 .15-.354c0-.138-.052-.26-.15-.358a.48.48 0 0 0-.354-.147.49.49 0 0 0-.505.505.48.48 0 0 0 .147.354.49.49 0 0 0 .358.15c.138 0 .255-.052.354-.15" class="H"/><use xlink:href="#C" fill="#685f63"/></g><g class="D"><g class="F"><path d="M13.218 48.616l-1-.798m-2.422-1.93l-1.044-.833m1.044.833c-.384.45-.595.902-.634 1.36-.047.522.13.936.54 1.243.393.298.815.384 1.268.267s.863-.427 1.247-.94"/><path d="M12.226 47.816l-2.42-1.93"/></g><path d="M12.678 44.629a19.02 19.02 0 0 1 3.15 3.253l-2.6.733c-.6.906-1.33 1.437-2.205 1.596s-1.687-.1-2.433-.75c-.703-.62-1.023-1.333-.953-2.13.065-.72.44-1.476 1.126-2.274l.26-2.546c1.247.45 2.468 1.156 3.667 2.118z" class="E"/></g><path d="M11.169 40.871c-.043.23-.004.453.12.664a.93.93 0 0 0 .518.43.71.71 0 0 0 .608-.052c.2-.108.306-.276.35-.505a.93.93 0 0 0-.125-.664.93.93 0 0 0-.513-.431c-.22-.078-.427-.06-.617.047a.68.68 0 0 0-.34.5m3.656.3a.73.73 0 0 0 .043.634.95.95 0 0 0 .518.466.93.93 0 0 0 .7.017.73.73 0 0 0 .466-.436.74.74 0 0 0-.043-.639.94.94 0 0 0-.522-.462.96.96 0 0 0-.695-.022.74.74 0 0 0-.466.44m2.06 3.384a.69.69 0 0 0-.432.345.54.54 0 0 0 0 .5c.082.173.22.298.42.38s.393.086.595.022.34-.173.423-.337a.56.56 0 0 0 .01-.51.76.76 0 0 0-.418-.371.86.86 0 0 0-.595-.03" fill="#716f75" class="B C"/><path d="M14.879 41.794a.95.95 0 0 0 .518.466.93.93 0 0 0 .7.017.73.73 0 0 0 .466-.436.74.74 0 0 0-.043-.639.94.94 0 0 0-.522-.462.96.96 0 0 0-.695-.022.74.74 0 0 0-.466.44.73.73 0 0 0 .043.634zm1.575 3.092a.54.54 0 0 0 0 .5c.082.173.22.298.42.38s.393.086.595.022.34-.173.423-.337a.56.56 0 0 0 .01-.51.76.76 0 0 0-.418-.371.86.86 0 0 0-.595-.03.69.69 0 0 0-.432.345zm-5.165-3.35c.125.2.298.358.518.43a.71.71 0 0 0 .608-.052c.2-.108.306-.276.35-.505a.93.93 0 0 0-.125-.664.93.93 0 0 0-.513-.431c-.22-.078-.427-.06-.617.047a.68.68 0 0 0-.34.5.97.97 0 0 0 .12.664z" class="D E"/><g class="B C"><path d="M24.833 13.301c-1.074-.177-2.248-.04-3.525.418s-2.27 1.096-2.986 1.916-.95 1.588-.695 2.3.923 1.156 1.998 1.333 2.248.035 3.52-.423 2.274-1.096 3-1.9c.72-.824.95-1.588.695-2.3s-.923-1.156-1.998-1.333" class="M"/><path d="M22.646 18.236c1.135-.34 2.04-.833 2.722-1.467s.932-1.234.764-1.8-.712-.92-1.627-1.07-1.946-.056-3.08.285-2.045.833-2.722 1.467-.932 1.23-.764 1.8.712.915 1.627 1.07 1.946.056 3.08-.285" class="N"/><path d="M55.163 25.162l-.056-.056c-1.898-2.092-3.9-3.844-6.036-5.26l-.272-.186-.134.712c-2.37-1.105-4.733-2.05-7.102-2.84h-.01c-.013-.004-.03-.01-.043-.01-3.94-.923-7.865-1.5-11.796-1.73l-.224-.013-.1 4.414c0 .013 0 .022.004.035l.574 4.155 1.363.846-1.715-.02-4.284-8.96-5.3.867-.703 3.214-1.6-2.696c-.026-.047-.065-.078-.112-.095s-.1-.017-.147 0a42.66 42.66 0 0 0-5.048 2.235l-.013.004a48.24 48.24 0 0 0-3.78 2.2l-.01.004-.004.004c-2.204 1.415-4.37 3.055-6.493 4.914l-.065.056-.01.1c-.246 3.44.237 6.877 1.44 10.316.013.03.03.06.06.086a.31.31 0 0 0 .091.052l5.432 1.368 2.07-2.3c.022-.03.04-.06.052-.095a.21.21 0 0 0 0-.104l-.483-1.864 3.17 1.933 3.184-.824 3.076-.798 3.775-.595c.043-.01.082-.026.112-.056s.052-.065.065-.104l1.2-4.612 1.173 3.823 3.08-.76v.406l8.58.44 6.593 1.26c.013.004.03.004.043.01l2.52.48.712-.846.345 3.607 2.45-.18c.013 0 .03-.004.047-.01l3.244-.97-.867-5.505 1.4-1.126a.22.22 0 0 0 .073-.112 16.22 16.22 0 0 0 .48-4.724zm-.88 4.625l-.125.1-1.035.824-.242-1.497-.475-.263.35 2.183v.017l.828 5.25-2.714.8-.15.047-.108.01-1.894.138-.35-3.607 2.024-2.4.017-.022c.01-.013.017-.022.026-.035l-.4-.18-.117.142-2.8 3.322-2-.38 2.015-3.53c.01-.022.017-.043.022-.065v-.004l.026-.125.6-3.1c.004-.01.004-.017.01-.026.004-.017.004-.035.004-.052l1.324-6.96c1.98 1.35 3.857 3 5.635 4.95.056 1.497-.086 2.942-.427 4.34l-.026.112zm-36.84-11.783l.177.302 1.575 2.64-2.226 10.243c-.004.03-.004.065.004.1s.026.065.043.086l.04.043 2.645 3.068-2.65.686-3.28-2.766.004.086c.004.056-.013.108-.052.155a.2.2 0 0 1-.147.078c-.056.004-.108-.013-.155-.052l.022.022 3.098 2.6-2.597.673-3.598-2.19-.2-.13c-.004-.02-.013-.043-.017-.065l-.198-.962-.004-.01c-.004-.017-.004-.022-.004-.022a50.35 50.35 0 0 1-.587-3.546 45.66 45.66 0 0 1-.38-6.77 46.04 46.04 0 0 1 3.361-1.967l.155 3.75.43-.164-.164-3.805c1.507-.785 3.062-1.475 4.655-2.067.017-.01.04-.017.06-.026zm-14.975 9.16a55.01 55.01 0 0 1 6.04-4.6 46.19 46.19 0 0 0 .38 6.498c.004.013.004.03.01.047l.013.095a2.78 2.78 0 0 0 .017.138 50.27 50.27 0 0 0 .479 2.925l-3.095-1.585c.023.018.043.04.06.065s.022.047.026.073c.01.047.004.095-.017.138-.004.01-.013.017-.017.026-.035.047-.082.073-.138.086h-.004c-.056.01-.108-.004-.155-.035l-.017-.013c.013.013.026.022.04.03l.285.147 3.14 1.614.216 1.027c.004.03.017.056.04.078a.2.2 0 0 0 .06.06l.345.207.565 2.183-1.82 2.02-5.07-1.277c-.009-.022-.017-.045-.022-.069-1.126-3.292-1.58-6.584-1.36-9.876zm21.063-3.167l-.207.634 1.7 4.12-1.312 5.065-.065.01-3.465.548-2.76-3.2 2.222-10.225.755-3.452 4.707-.768 4.18 8.745.164 2.9.017.263.073 1.294v2.15l-2.787.686-1.014-3.33-.004-.01-.04-.112-.242-.64-.004-.004-.004-.013zm6.364-3.387l-.056-.388-.004-.035.082-3.948c3.821.239 7.615.796 11.343 1.665l.427.125c2.3.777 4.6 1.704 6.9 2.778l-1.85 9.733-.1.155-1.985 3.473-6.144-1.17 2.326-2.96c.026-.034.04-.073.043-.116l.022-.315.017-.263.25-3.715c.004-.03 0-.06-.013-.1s-.026-.052-.047-.073l-.013-.017-1.117-1.16 1.33-2.8-.25-.06h-.004l-1.264 2.662-.203.4 1.13 1.205-.276 4.08-.004.047-.164.2-2.27 2.886-8.06-.414v-2.602l-.004-.13-.242-4.137 5.988.082-.45-.436-3.076-.043-1.8-1.117-.488-3.516" class="L"/><path d="M50.391 31.409l-.237.28.457 5.58.108-.01.15-.047-.48-5.803"/><path d="M50.611 37.268l-.457-5.58-1.786 2.1.35 3.607 1.894-.138" class="G"/><path d="M49.908 31.314l-2.813-.53-1.985 3.473 2 .38.876-1.04.004-.004 1.93-2.278m2.97-2.102l.242 1.497 1.035-.824-1.277-.673" class="I"/><path d="M54.158 29.886l.125-.1.026-.112-1.63-.872-.328-.164.056.3.475.263 1.277.673m-7.013.78c-.004.022-.013.043-.022.065l-.03.056 2.813.53.117-.142-.004-.1-2.848-.54-.026.125v.004"/><path d="M52.738 26.836v-.513l-2.986-2.006.272 6.856.4.18.026-.116-.242-6.088 2.52 1.687" class="G"/><path d="M52.738 26.322v.513l-2.52-1.687.242 6.08-.026.125-.026.035-.017.022.48 5.803 2.714-.8-.828-5.268-.35-2.183-.056-.3.328.164 1.63.872c.34-1.398.483-2.843.427-4.34-1.778-1.95-3.654-3.598-5.635-4.95l-.06.324-.004.017-1.26 6.618c0 .017 0 .035-.004.052-.004.01-.004.017-.01.026l-.6 3.1 2.848.54-.268-6.756 2.986 2.006" class="H"/><path d="M17.619 18.306l-.177-.302-.06.026c-.272 3.378-.233 6.96.112 10.747l.186-.863c-.268-3.37-.3-6.57-.06-9.608" fill="#d8f5fc"/><path d="M19.194 20.936l-1.575-2.64c-.23 3.037-.207 6.24.06 9.608l1.514-6.968" class="G"/><path d="M19.698 34.486l-2.645-3.068-3.14 1.1 3.137 2.645 2.65-.686" class="I"/><path d="M10.133 33.656l.2.13 3.098-1.092-.022-.022c-.029-.024-.052-.056-.065-.091l-.013-.052v-.004l-.004-.073-3.223 1.14c.004.022.013.043.017.065"/><path d="M10.466 33.86l3.477 2.118 2.597-.673-3.098-2.6-3.098 1.092.116.073h.004" class="I"/><path d="M13.339 27.346l-.423.164.423 4.944.004.073v.004l.013.052a.22.22 0 0 0 .065.091.21.21 0 0 0 .155.052c.055-.004.108-.03.147-.078s.056-.1.052-.155l-.004-.086-.01-.103-.423-4.957" class="G"/><path d="M16.972 31.288c-.01-.034-.01-.07-.004-.1l.004-.022-3.2 1.135.01.104.142.12 3.14-1.1-.04-.043a.28.28 0 0 1-.039-.069"/><path d="M12.89 23.902l-.43.164-.155-3.75-3.36 1.967c-.043 2.218.082 4.474.38 6.77l.587 3.547c.004.013.004.017.004.022l.004.01.198.962 3.223-1.14-.423-4.944.423-.164.423 4.957 3.2-1.135.522-2.4c-.345-3.788-.384-7.37-.112-10.747-1.593.592-3.148 1.282-4.655 2.067l.164 3.805" class="H"/><path d="M8.926 29.342c-.01-.047-.013-.095-.017-.138l-.013-.095c-.004-.017-.004-.035-.01-.047l-2.615 1.592.022.017.242.125 2.4-1.454"/><path d="M9.404 32.268l-.48-2.925-2.4 1.454 2.87 1.47" class="I"/><path d="M8.506 22.566c-2.117 1.392-4.135 2.929-6.04 4.6-.22 3.292.233 6.584 1.36 9.876l2.912-1.972-.652-4.017c-.013-.01-.026-.017-.04-.03l-2.23-1.55 2.5-1.644.047.475-1.786 1.182 1.683 1.17 2.615-1.592a47.85 47.85 0 0 1-.38-6.498" class="H"/><path d="M6.371 30.736c-.017-.025-.037-.047-.06-.065l-.017-.01-.022-.017-1.683-1.17 1.786-1.182-.047-.475-2.5 1.644 2.248 1.562a.22.22 0 0 0 .155.035h.004a.23.23 0 0 0 .138-.086c.004-.01.013-.017.017-.026a.22.22 0 0 0 .017-.138c-.004-.026-.013-.052-.026-.073" class="G"/><path d="M6.371 31.198l-.285-.147.652 4.017-2.912 1.972c.005.024.013.047.022.069l.246.065 2.856-1.937a.15.15 0 0 0 .047-.056c.01-.034.013-.052.01-.073l-.013-.078-.62-3.83"/><path d="M9.728 33.838l-.216-1.027-3.14-1.614.62 3.83 3.745 1.337-.565-2.183-.345-.207a.2.2 0 0 1-.06-.06c-.022-.022-.035-.047-.04-.078" class="G"/><path d="M8.926 38.386l1.82-2.02-3.84-1.096-2.804 1.903 4.824 1.213" class="I"/><path d="M6.992 35.029l.013.078c.004.022 0 .04-.004.06-.017.035-.03.056-.052.07l-.052.035 3.84 1.096-3.745-1.337" fill="#93cae0"/><path d="M29.458 28.636l-.017-.263-3.754.94.035.1.01.022.04.125 3.7-.923"/><path d="M29.531 29.921l-.073-1.294-3.7.923.975 3.206 2.787-.686v-2.15" class="I"/><path d="M23.12 24.148h.004l-.01-.022c0 .004 0 .013.004.022" class="L"/><path d="M21.933 30.072l.03-.017-.017-.03-.013.047" class="H"/><path d="M23.322 24.631l-.168-.4-1.45 5.704-4.263 1.1-.03.138v.004l.095.108 4.336-1.122c.01-.004.017-.004.026-.01s.021-.016.03-.026c.017-.017.03-.035.035-.056l.013-.047 1.376-5.393"/><path d="M21.963 30.054l-.03.017c-.004.022-.017.04-.035.056-.01.01-.017.017-.03.026s-.017.004-.026.01l-.1.026 1.884 3.647.065-.01-1.74-3.762" fill="#93cae0"/><path d="M21.946 30.024l.017.03 1.74 3.762 1.312-5.065-1.7-4.12-1.376 5.393" class="G"/><path d="M21.743 30.188l-4.237 1.096 2.666 3.1 3.465-.548-1.894-3.637" class="I"/><path d="M26.209 22.31l-.155-.406-3.447.677.5 1.545.01.022h-.004l.035.082.168.4.203-.64-.358-1.083 3.042-.6" class="G"/><path d="M26.053 21.904l.155.406-3.042.6.358 1.083 1.92 4.673.242.64 3.754-.94-.164-2.9-4.18-8.745-4.707.768-.755 3.46-2.192 10.08 4.263-1.1 1.45-5.704-.026-.07c-.013-.022-.013-.03-.013-.035l-.5-1.545 3.447-.677" class="H"/><path d="M46.642 30.696l.1-.155.017-.1-5.83-1.104-.017.263 5.738 1.087"/><path d="M44.656 34.17l1.985-3.473-5.738-1.087-.022.315a.22.22 0 0 1-.043.116l-2.326 2.96 6.144 1.17" class="I"/><path d="M40.456 29.836l.004-.047h-10.5l.004.117v.142h10.33l.164-.2"/><path d="M38.022 32.924l2.27-2.886h-10.33v2.472l8.06.414" class="I"/><path d="M35.813 20.274v.293l.66.07 4.582.8c-.022-.035-.03-.073-.026-.112l.013-.15-4.962-.854-.267-.035"/><path d="M36.476 20.636h-.004l-.66-.07 3.775 3.935.203-.4-3.314-3.465" class="G"/><path d="M30.381 24.136l1.8 1.117 3.076.043-5.363-4.677.488 3.516" class="I"/><path d="M35.813 20.566v-.293l.267.035 4.962.854.216-3.257c-3.78-.876-7.56-1.432-11.343-1.665l-.082 3.948.004.035 5.872 5.117-.004.384-5.988-.082.242 4.137h10.5l.276-4.08-4.923-5.13" class="H"/><path d="M29.826 20.222l.056.388 5.363 4.677.45.436.004-.384-5.872-5.117"/><path d="M44.468 22.884v.452l3.378 1.355.082-.43-3.46-1.376m-.17 3.364v.453l3 .798.082-.427-3.093-.824" class="G"/><path d="M41.098 25.451l.013.017a.2.2 0 0 1 .06.173l-.25 3.695 5.83 1.105.56-2.95-3-.798v-.453l3.093.824.453-2.382-3.389-1.346v-.453l3.46 1.376.656-3.452c-2.3-1.074-4.6-2.002-6.9-2.778l-.32 3.477-.268 3.943" class="H"/><path d="M41.056 21.43v.006l-4.578-.8 3.313 3.456 1.264-2.662" class="I"/><path d="M41.686 18.03l-.427-.125-.216 3.257-.013.15a.17.17 0 0 0 .026.112v.004h.004l.25.06-1.33 2.8 1.117 1.16.268-3.943.32-3.477" class="G"/></g><path d="M36.473 20.636h.004" stroke="red" class="D S"/><g class="B C"><path d="M31.506 16.792l-1.17-.1-.07 3.326.764.664 2.187-3.728-1.713-.173m-3.778 6.457l-2.377 4.06.488 1.187c.004.01.004.017.01.026l.108.28.388-.095 2.2-3.754-.815-1.704m7.248.893l.86.746c.065.022.125.056.177.112.037.037.07.077.1.12a.43.43 0 0 1 .117.272.39.39 0 0 1-.082.285v.06a.46.46 0 0 1-.129.306.42.42 0 0 1-.3.12l-1.913-.016-1.9 3.218h3.628l3.072-5.238-2.252-2.347-1.385 2.37m5.837-5.903l-2.118-.45-1.342 2.3 3.296.57v-.013l.164-2.4M4.218 26.249l-1.333 1.122-.04 1.22 1.372-2.343m15.844-5.237c-.004.013-.004.022-.004.035l-1.113 5.108 5.182-8.832-3.378.552-.686 3.137m-3.456 9.83l.453-2.088-.276-5.1-2.904 4.953.263 3.098 2.464-.87m-6.274 1.67l-.004-.022c-.01-.017-.01-.026-.013-.035l.017.056m2.4-1.967l-1.225 2.088 1.363-.48-.138-1.6m-9 4.775l.3 1.053 2.213-1.5-.488-3.03-2.036 3.477m3.308-5.636l1.397-.847-.138-1.28-1.247 2.127m31.257-.347h1.76l.224-3.387-1.986 3.387m12.635-4.752l.893-1.523a29.47 29.47 0 0 0-2.425-1.941l-1.2 6.265-.017.12c-.01.017-.01.026-.013.04l-.488 2.567 1.743-2.973-.102-2.803a.4.4 0 0 1 .099-.293.41.41 0 0 1 .272-.15c.108-.012.2.004.302.07l.936.626m2.338-.165l-.73 1.243.44.298a.4.4 0 0 1 .181.272.44.44 0 0 1-.065.328l-.242.358a.4.4 0 0 1-.272.181c-.116.022-.23 0-.328-.065l-.37-.255-1.1 1.864.04 2.87.423 5.13 1.842-.552-.768-4.88c-.004-.017-.004-.035-.004-.052l-.345-2.144a2.46 2.46 0 0 1-.039-.492c.004-.073.022-.134.052-.177a.31.31 0 0 1 .125-.1.28.28 0 0 1 .164-.039.7.7 0 0 1 .142.026c.086.017.237.078.457.18l.116.065c.026.01.052.022.078.043l.936.5c.233-1.14.332-2.313.298-3.516l-1.04-1.087m-11.614-.8l-.107 1.713-.16 3.663 5.026.954.406-2.14-2.666-.73a.39.39 0 0 1-.259-.198.41.41 0 0 1-.043-.328l.01-.418a.41.41 0 0 1 .526-.306l2.68.708.298-1.575-3.05-1.225c-.056-.022-.112-.108-.177-.26s-.082-.246-.06-.302l.02-.4c.043-.108.12-.2.23-.237.056-.022.138-.035.237-.04s.177.013.233.035l2.817 1.13.492-2.606-3.956-1.678-2.485 4.24m-24.782-4.537l.026-.414a40.42 40.42 0 0 0-3.732 1.683l.15 3.53a.42.42 0 0 1-.112.311.43.43 0 0 1-.302.138l-.43.12c-.12.004-.224-.03-.306-.112a.41.41 0 0 1-.142-.298l-.112-2.684-2.48 4.237.315 3.4.263 1.795 6.862-11.706" fill="#8ebed3"/><path d="M27.438 41.173l1 3.326.733-1.1 1.687 2.174.056-1.773 2.338 1.325-.056-1.337 3.473 1.45-2.187-2.757 1.868-.686-1.903-1.217 1.458-1.143-2.373-.026.557-1.2-3.788.16-2.865 2.804" class="O"/></g><path d="M27.438 41.173l2.865-2.804 3.788-.16-.557 1.2 2.373.026-1.458 1.143 1.903 1.217-1.868.686 2.187 2.757-3.473-1.45.056 1.337-2.338-1.325-.056 1.773-1.687-2.174-.733 1.1z" class="D F P"/><path d="M23.284 33.736c-.28.626-.255 1.234.082 1.825s.885.997 1.64 1.212c.764.2 1.514.177 2.252-.112s1.247-.742 1.532-1.363a1.9 1.9 0 0 0-.078-1.825c-.337-.6-.884-.997-1.644-1.212a3.42 3.42 0 0 0-2.243.108c-.738.3-1.25.742-1.54 1.368" class="B C H"/><path d="M23.366 35.551c.337.6.885.997 1.64 1.212.764.2 1.514.177 2.252-.112s1.247-.742 1.532-1.363a1.9 1.9 0 0 0-.078-1.825c-.337-.6-.884-.997-1.644-1.212a3.42 3.42 0 0 0-2.243.108c-.738.3-1.25.742-1.54 1.368-.28.626-.255 1.234.082 1.825z" class="D E"/><g class="B C"><path d="M24.203 34.062c-.207.462-.186.9.06 1.346s.65.738 1.208.897a2.58 2.58 0 0 0 1.661-.086c.544-.21.92-.544 1.13-1.005a1.4 1.4 0 0 0-.056-1.346c-.25-.446-.65-.733-1.212-.893a2.53 2.53 0 0 0-1.657.078c-.544.212-.923.548-1.135 1" fill="#89a9b9"/><path d="M25.946 33.136c.056.1.142.164.267.203a.54.54 0 0 0 .37-.022c.12-.048.207-.12.254-.224s.043-.198-.013-.298-.147-.164-.272-.203a.56.56 0 0 0-.367.017c-.125.047-.207.125-.255.23s-.043.2.013.298" class="H"/><path d="M32.982 35.906c-1.342-.367-2.623-.444-3.844-.233.947.703 1.842 1.473 2.679 2.304l1.165-2.07" class="J"/><path d="M30.226 40.642c.807-.656 1.337-1.545 1.592-2.666-.837-.831-1.732-1.601-2.679-2.304-2.865-2.1-5.812-3.184-8.845-3.22.32 3.188 2.463 6.265 6.433 9.233 1.428.04 2.593-.306 3.5-1.044"/><path d="M31.68 37.954l.872-1.55c-1-.272-1.96-.328-2.87-.173a18.91 18.91 0 0 1 1.998 1.72" class="K"/><path d="M20.048 32.229l.035.246c.315 3.24 2.485 6.368 6.515 9.384l.056.043h.07c1.484.043 2.696-.32 3.64-1.092.833-.677 1.385-1.596 1.657-2.753l1.3-2.3-.272-.07c-1.342-.367-2.623-.45-3.848-.255-2.882-2.096-5.845-3.166-8.892-3.196zm9.518 3.603c.988-.12 2.02-.052 3.093.2l-.936 1.66a25.47 25.47 0 0 0-2.157-1.873zm-.552.017l.073.052.962.733c.703.557 1.225.992 1.557 1.316-.246 1.06-.75 1.903-1.514 2.524-.858.7-1.954 1.023-3.292 1-3.77-2.835-5.86-5.768-6.26-8.8 2.9.1 5.725 1.152 8.474 3.175" class="L"/><path d="M29.574 40.516c.634-.513 1.048-1.212 1.25-2.097-.695-.686-1.398-1.3-2.105-1.812-2.256-1.66-4.573-2.502-6.96-2.528.255 2.507 1.94 4.927 5.06 7.26 1.122.03 2.04-.242 2.753-.824" fill="#cbc4c4"/><path d="M30.126 40.133c1.333-.013 2.3-.185 2.9-.518-1.247-1.247-3.06-2.093-5.436-2.546.216.677 1.066 1.696 2.546 3.063" class="J"/><path d="M29.911 40.111c1.126 0 1.95-.13 2.468-.388-.98-.992-2.464-1.678-4.444-2.054.147.54.807 1.35 1.976 2.442" class="K"/><path d="M27.286 36.794l.164.362c.332.746 1.156 1.734 2.468 2.955l.22.237c1.38-.013 2.377-.194 2.994-.544l.26-.138-.2-.203c-1.273-1.277-3.12-2.144-5.548-2.606zm2.848 3.124h-.04c-1.173-1.092-1.924-1.95-2.248-2.576 2.045.427 3.646 1.165 4.802 2.213-.578.23-1.415.35-2.515.362" class="L"/><path d="M25.04 41.988c.488-.375.936-1.005 1.342-1.898l-2.55-2.114c-.173 1.4.23 2.727 1.208 4.012" class="J"/><path d="M26.429 39.978l-2.08-1.614c-.108 1.186.242 2.3 1.053 3.313.38-.35.72-.915 1.027-1.7" class="K"/><path d="M23.676 37.678l-.052.26c-.186 1.454.23 2.848 1.243 4.185l.134.177.173-.138c.513-.393.992-1.074 1.437-2.045zm2.48 2.4c-.332.712-.695 1.247-1.08 1.605-.777-1.087-1.13-2.213-1.06-3.374l2.14 1.77" class="L"/><path d="M41.586 37.496c-.362.12-.677.358-.945.716s-.406.725-.418 1.105.104.66.35.846.548.22.906.1.677-.358.945-.716.406-.725.418-1.104-.1-.665-.345-.85-.552-.216-.9-.095" class="M"/><path d="M42.328 37.966c-.18-.134-.406-.16-.67-.07s-.5.263-.7.526-.298.535-.306.815.073.487.26.62c.177.138.4.164.664.073s.5-.263.7-.526.298-.535.306-.815-.073-.488-.254-.626" class="N"/><path d="M18.408 41.872c.487-.04.992.078 1.523.35s.923.617 1.178 1.035.298.8.13 1.113-.492.505-.98.544-.997-.082-1.527-.354-.92-.613-1.174-1.03-.302-.8-.138-1.113.496-.505.988-.544" class="M"/><path d="M18.564 42.216c-.393.03-.66.173-.794.43s-.095.56.112.897.518.613.94.828.833.3 1.225.28.656-.177.8-.436.095-.557-.108-.9-.518-.617-.945-.833-.833-.3-1.22-.28" class="N"/><path d="M39.476 46.859l-.634-1.023-1.1.198.634 1.023 1.1-.198" class="O"/></g><path d="M38.841 45.836l-1.1.198.634 1.023 1.1-.198z" class="D F P"/><path d="M41.826 47.739l.557-.492-.388-.65-.557.492.388.65" class="B C O"/><path d="M42.384 47.236l-.388-.65-.557.492.388.65z" class="D F P"/><path d="M44.731 47.336l.457-.216-.354-.272-.457.216.354.272" class="B C O"/><path d="M45.188 47.109l-.354-.272-.457.216.354.272z" class="D F P"/><g class="B C"><path d="M39.006 39.814c-.272.035-.535.164-.78.384a1.5 1.5 0 0 0-.483.738c-.073.272-.035.488.112.65s.358.23.64.2c.272-.04.535-.168.785-.388a1.53 1.53 0 0 0 .479-.733c.073-.272.034-.488-.112-.656s-.358-.224-.64-.186" class="M"/><path d="M39.523 40.15c-.125-.138-.298-.2-.526-.16s-.45.142-.656.324a1.26 1.26 0 0 0-.397.608c-.06.23-.03.4.095.548s.298.185.526.15a1.23 1.23 0 0 0 .65-.32c.206-.186.34-.384.397-.613.06-.22.03-.4-.09-.54" class="N"/></g></symbol><defs ><path id="C" d="M9.795 45.888c-.384.45-.595.902-.634 1.36-.047.522.13.936.54 1.243.393.298.815.384 1.268.267s.863-.427 1.247-.94l-2.42-1.93"/></defs></svg>